HIERARCHY
ROOT Hips
{
	OFFSET 0.000000 0.000000 0.000000
	CHANNELS 6 Xposition Yposition Zposition Zrotation Yrotation Xrotation 
	JOINT LHipJoint
	{
		OFFSET 0.000000 0.000000 0.000000
		CHANNELS 3 Zrotation Yrotation Xrotation
		JOINT LeftUpLeg
		{
			OFFSET 1.363060 -1.794630 0.839290
			CHANNELS 3 Zrotation Yrotation Xrotation
			JOINT LeftLeg
			{
				OFFSET 2.448110 -6.726130 0.000000
				CHANNELS 3 Zrotation Yrotation Xrotation
				JOINT LeftFoot
				{
					OFFSET 2.562200 -7.039590 0.000000
					CHANNELS 3 Zrotation Yrotation Xrotation
					JOINT LeftToeBase
					{
						OFFSET 0.157640 -0.433110 2.322550
						CHANNELS 3 Zrotation Yrotation Xrotation
						End Site
						{
							OFFSET 0.000000 0.000000 0.000000
						}
					}
				}
			}
		}
	}
	JOINT RHipJoint
	{
		OFFSET 0.000000 0.000000 0.000000
		CHANNELS 3 Zrotation Yrotation Xrotation
		JOINT RightUpLeg
		{
			OFFSET -1.305520 -1.794630 0.839290
			CHANNELS 3 Zrotation Yrotation Xrotation
			JOINT RightLeg
			{
				OFFSET -2.542530 -6.985550 0.000000
				CHANNELS 3 Zrotation Yrotation Xrotation
				JOINT RightFoot
				{
					OFFSET -2.568260 -7.056230 0.000000
					CHANNELS 3 Zrotation Yrotation Xrotation
					JOINT RightToeBase
					{
						OFFSET -0.164730 -0.452590 2.363150
						CHANNELS 3 Zrotation Yrotation Xrotation
						End Site
						{
							OFFSET 0.000000 0.000000 0.000000
						}
					}
				}
			}
		}
	}
	JOINT LowerBack
	{
		OFFSET 0.000000 0.000000 0.000000
		CHANNELS 3 Zrotation Yrotation Xrotation
		JOINT Spine
		{
			OFFSET 0.028270 2.035590 -0.193380
			CHANNELS 3 Zrotation Yrotation Xrotation
			JOINT Spine1
			{
				OFFSET 0.056720 2.048850 -0.042750
				CHANNELS 3 Zrotation Yrotation Xrotation
				JOINT Neck
				{
					OFFSET 0.000000 0.000000 0.000000
					CHANNELS 3 Zrotation Yrotation Xrotation
					JOINT Neck1
					{
						OFFSET -0.054170 1.746240 0.172020
						CHANNELS 3 Zrotation Yrotation Xrotation
						JOINT Head
						{
							OFFSET 0.104070 1.761360 -0.123970
							CHANNELS 3 Zrotation Yrotation Xrotation
							End Site
							{
								OFFSET 0.000000 0.000000 0.000000
							}
						}
					}
				}
				JOINT LeftShoulder
				{
					OFFSET 0.000000 0.000000 0.000000
					CHANNELS 3 Zrotation Yrotation Xrotation
					JOINT LeftArm
					{
						OFFSET 3.362410 1.200890 -0.311210
						CHANNELS 3 Zrotation Yrotation Xrotation
						JOINT LeftForeArm
						{
							OFFSET 4.983000 -0.000000 -0.000000
							CHANNELS 3 Zrotation Yrotation Xrotation
							JOINT LeftHand
							{
								OFFSET 3.483560 -0.000000 -0.000000
								CHANNELS 3 Zrotation Yrotation Xrotation
								JOINT LeftFingerBase
								{
									OFFSET 0.000000 0.000000 0.000000
									CHANNELS 3 Zrotation Yrotation Xrotation
									JOINT LeftHandIndex1
									{
										OFFSET 0.715260 -0.000000 -0.000000
										CHANNELS 3 Zrotation Yrotation Xrotation
										End Site
										{
											OFFSET 0.000000 0.000000 0.000000
										}
									}
								}
								JOINT LThumb
								{
									OFFSET 0.000000 0.000000 0.000000
									CHANNELS 3 Zrotation Yrotation Xrotation
									End Site
									{
										OFFSET 0.000000 0.000000 0.000000
									}
								}
							}
						}
					}
				}
				JOINT RightShoulder
				{
					OFFSET 0.000000 0.000000 0.000000
					CHANNELS 3 Zrotation Yrotation Xrotation
					JOINT RightArm
					{
						OFFSET -3.136600 1.374050 -0.404650
						CHANNELS 3 Zrotation Yrotation Xrotation
						JOINT RightForeArm
						{
							OFFSET -5.241900 -0.000000 -0.000000
							CHANNELS 3 Zrotation Yrotation Xrotation
							JOINT RightHand
							{
								OFFSET -3.444170 -0.000000 -0.000000
								CHANNELS 3 Zrotation Yrotation Xrotation
								JOINT RightFingerBase
								{
									OFFSET 0.000000 0.000000 0.000000
									CHANNELS 3 Zrotation Yrotation Xrotation
									JOINT RightHandIndex1
									{
										OFFSET -0.622530 -0.000000 -0.000000
										CHANNELS 3 Zrotation Yrotation Xrotation
										End Site
										{
											OFFSET 0.000000 0.000000 0.000000
										}
									}
								}
								JOINT RThumb
								{
									OFFSET 0.000000 0.000000 0.000000
									CHANNELS 3 Zrotation Yrotation Xrotation
									End Site
									{
										OFFSET 0.000000 0.000000 0.000000
									}
								}
							}
						}
					}
				}
			}
		}
	}
}
MOTION
Frames: 11
Frame Time: 0.033333
-0.068875 17.336653 -0.068875 -3.189669 -9.600161 4.502424 -3.518929 20.396482 4.992951 -14.326693 -5.507381 -16.559228 -6.855894 -9.557156 -29.306193 2.654287 18.275913 39.087852 0.000000 0.000000 0.000000 0.218173 -28.032574 -13.250160 45.547031 10.241788 -1.367002 -20.351590 1.533506 36.190279 -0.866631 12.282482 -23.728630 0.000000 0.000000 0.000000 0.043929 2.465802 14.315158 3.234439 2.293722 -0.834920 1.378749 2.800736 -9.283394 -3.340291 0.508263 0.960710 3.568317 -0.039787 3.280992 0.000000 0.000000 0.000000 -0.252553 13.810912 11.273043 -68.789442 -2.214401 17.635734 -7.032466 -83.090473 0.341228 2.992317 -14.334341 0.164448 3.051393 -14.326080 0.000000 0.000000 0.000000 0.000000 0.000000 0.000000 0.000000 5.895361 -16.504016 2.681034 54.663535 10.383486 0.692351 17.172562 9.319372 0.038791 0.564089 4.542401 0.019345 0.562989 4.542853 0.000000 0.000000 0.000000 0.000000 0.000000 0.000000 0.000000 
-0.060742 17.365946 0.088226 -2.955669 -9.520837 4.666018 -3.130032 20.428320 4.771802 -15.150799 -5.503892 -16.089601 -6.810608 -9.304042 -28.358447 2.222594 17.268922 36.984467 0.000000 0.000000 0.000000 0.161225 -27.742025 -12.846687 44.762953 10.718097 -1.943250 -19.927903 1.208729 37.081474 -0.796758 12.185420 -24.169581 0.000000 0.000000 0.000000 -0.040674 2.448485 14.170678 3.231291 2.239418 -0.967773 1.479208 2.728912 -9.380925 -3.764554 0.551124 1.345443 3.682897 -0.043353 3.303442 0.000000 0.000000 0.000000 -0.380949 13.724109 11.342374 -68.620115 -2.032507 18.363749 -8.715428 -82.306555 0.353149 2.773764 -14.559155 0.170262 2.832862 -14.552169 0.000000 0.000000 0.000000 0.000000 0.000000 0.000000 0.000000 6.523623 -16.648093 2.420889 53.886931 10.303505 0.589202 16.585268 8.387103 0.036946 0.567562 4.395464 0.018428 0.566597 4.395879 0.000000 0.000000 0.000000 0.000000 0.000000 0.000000 0.000000 
-0.050352 17.397059 0.244729 -2.723596 -9.432769 4.833397 -2.761198 20.454526 4.531064 -15.953540 -5.505401 -15.648784 -6.769917 -9.021224 -27.322426 1.827455 16.239242 34.834659 0.000000 0.000000 0.000000 0.115712 -27.426977 -12.425831 43.940143 11.182906 -2.544716 -19.501920 0.878386 37.919048 -0.723750 12.074565 -24.539135 0.000000 0.000000 0.000000 -0.120959 2.424729 14.020151 3.234922 2.181424 -1.099400 1.578801 2.653227 -9.478700 -4.198006 0.595270 1.734806 3.799449 -0.047061 3.322831 0.000000 0.000000 0.000000 -0.511881 13.637709 11.408797 -68.450627 -1.866543 19.058729 -10.450134 -81.487255 0.365075 2.546107 -14.777392 0.176094 2.604985 -14.771735 0.000000 0.000000 0.000000 0.000000 0.000000 0.000000 0.000000 7.161392 -16.785919 2.165627 53.080092 10.209668 0.500334 16.027282 7.525376 0.035253 0.571504 4.255374 0.017587 0.570658 4.255756 0.000000 0.000000 0.000000 0.000000 0.000000 0.000000 0.000000 
-0.037756 17.429544 0.400232 -2.494824 -9.337216 5.002793 -2.414759 20.479018 4.274177 -16.730378 -5.512874 -15.241268 -6.735788 -8.708749 -26.203777 1.470504 15.196129 32.654993 0.000000 0.000000 0.000000 0.080835 -27.092892 -11.990935 43.084770 11.629690 -3.164570 -19.076924 0.544776 38.699452 -0.650233 11.954860 -24.843602 0.000000 0.000000 0.000000 -0.195621 2.394744 13.865396 3.245356 2.120142 -1.229535 1.676876 2.574076 -9.576941 -4.640500 0.640844 2.128782 3.918217 -0.050914 3.339324 0.000000 0.000000 0.000000 -0.645045 13.552411 11.472145 -68.281090 -1.717230 19.716007 -12.238186 -80.628748 0.377001 2.309743 -14.988222 0.181942 2.368138 -14.983937 0.000000 0.000000 0.000000 0.000000 0.000000 0.000000 0.000000 7.807662 -16.917591 1.915021 52.244220 10.102631 0.424685 15.499173 6.730009 0.033695 0.575775 4.121655 0.016813 0.575034 4.122008 0.000000 0.000000 0.000000 0.000000 0.000000 0.000000 0.000000 
-0.023520 17.462992 0.554371 -2.270509 -9.235482 5.172744 -2.092734 20.504870 4.004850 -17.477387 -5.527514 -14.870841 -6.704349 -8.367617 -25.010061 1.151775 14.147863 30.463400 0.000000 0.000000 0.000000 0.055978 -26.744529 -11.545296 42.202006 12.053350 -3.796918 -18.650648 0.207312 39.422482 -0.577472 11.829056 -25.090394 0.000000 0.000000 0.000000 -0.263568 2.358872 13.707896 3.262590 2.055971 -1.357960 1.772807 2.491840 -9.675913 -5.091903 0.687988 2.527376 4.039434 -0.054917 3.353111 0.000000 0.000000 0.000000 -0.780164 13.468901 11.532240 -68.111566 -1.585273 20.330342 -14.080896 -79.726612 0.388907 2.065203 -15.190694 0.187801 2.122833 -15.187809 0.000000 0.000000 0.000000 0.000000 0.000000 0.000000 0.000000 8.461499 -17.043235 1.668812 51.380590 9.983021 0.361283 15.001120 5.996824 0.032255 0.580240 3.993842 0.016096 0.579591 3.994168 0.000000 0.000000 0.000000 0.000000 0.000000 0.000000 0.000000 
-0.006195 17.497627 0.708355 -2.147577 -9.008450 5.415199 -1.718693 20.513640 3.620222 -18.206157 -5.559201 -14.531844 -6.729586 -7.982176 -23.646017 0.846486 13.028107 28.203960 0.000000 0.000000 0.000000 -0.158162 -26.462389 -10.985302 41.243166 12.202117 -4.356050 -17.664076 -0.294335 39.490461 -0.605495 11.917868 -25.670318 0.000000 0.000000 0.000000 -0.288757 2.249079 13.640296 2.913247 1.923461 -1.330208 1.535233 2.397993 -9.614100 -4.518593 0.605594 2.249791 3.997828 -0.073977 3.613314 0.000000 0.000000 0.000000 -0.559744 13.825534 11.394694 -68.349476 -1.990508 19.116313 -10.013410 -81.718615 0.367700 2.581615 -14.751921 0.177439 2.640063 -14.746122 0.000000 0.000000 0.000000 0.000000 0.000000 0.000000 0.000000 7.396487 -17.193091 1.989920 52.870050 10.176049 0.539462 16.262610 7.611010 0.035497 0.596405 4.271111 0.017709 0.595548 4.271506 0.000000 0.000000 0.000000 0.000000 0.000000 0.000000 0.000000 
0.012828 17.532429 0.860888 -2.026314 -8.768235 5.659046 -1.376269 20.524543 3.225657 -18.900986 -5.604513 -14.236333 -6.752107 -7.568336 -22.211508 0.579286 11.916355 25.953744 0.000000 0.000000 0.000000 -0.343355 -26.158808 -10.410507 40.237449 12.341911 -4.940994 -16.661117 -0.801615 39.511380 -0.628650 12.000602 -26.219283 0.000000 0.000000 0.000000 -0.317096 2.127615 13.565516 2.609083 1.788438 -1.304033 1.277427 2.298329 -9.538496 -3.980164 0.528959 1.988783 3.967650 -0.091442 3.859049 0.000000 0.000000 0.000000 -0.346393 14.189817 11.232510 -68.591925 -2.492039 17.693756 -6.206699 -83.545329 0.345907 3.053251 -14.262939 0.166886 3.111170 -14.254477 0.000000 0.000000 0.000000 0.000000 0.000000 0.000000 0.000000 6.352868 -17.320249 2.352288 54.253973 10.303330 0.796670 17.700264 9.562371 0.039680 0.617562 4.584570 0.019787 0.616432 4.585055 0.000000 0.000000 0.000000 0.000000 0.000000 0.000000 0.000000 
0.032733 17.567042 1.011955 -1.905564 -8.533237 5.903750 -1.065769 20.547451 2.831064 -19.562624 -5.665771 -13.991088 -6.761081 -7.125915 -20.716651 0.346815 10.822330 23.723737 0.000000 0.000000 0.000000 -0.495618 -25.827479 -9.829822 39.185233 12.466803 -5.543250 -15.639775 -1.312578 39.487788 -0.647837 12.082894 -26.741676 0.000000 0.000000 0.000000 -0.353868 1.991863 13.481906 2.335973 1.649479 -1.290908 1.048140 2.188391 -9.391006 -3.497200 0.459095 1.715265 3.937158 -0.106951 4.076189 0.000000 0.000000 0.000000 -0.079301 14.496833 11.042300 -68.847743 -3.076276 16.205784 -2.918013 -85.132543 0.319182 3.484745 -13.821186 0.153785 3.542678 -13.810172 0.000000 0.000000 0.000000 0.000000 0.000000 0.000000 0.000000 5.337994 -17.384312 2.746790 55.501926 10.380127 1.150255 19.311712 11.918289 0.045117 0.644608 4.940932 0.022488 0.643126 4.941535 0.000000 0.000000 0.000000 0.000000 0.000000 0.000000 0.000000 
0.053533 17.601180 1.161291 -1.785174 -8.288227 6.147734 -0.791537 20.574639 2.433914 -20.186630 -5.742736 -13.791829 -6.758662 -6.658999 -19.167883 0.147768 9.748445 21.529436 0.000000 0.000000 0.000000 -0.615616 -25.479716 -9.239858 38.091289 12.580274 -6.165391 -14.604938 -1.826501 39.426239 -0.660761 12.158534 -27.238750 0.000000 0.000000 0.000000 -0.392500 1.848602 13.392484 2.103814 1.510559 -1.282432 0.820326 2.075367 -9.231412 -3.066517 0.395998 1.464315 3.915211 -0.121118 4.275783 0.000000 0.000000 0.000000 0.169142 14.794203 10.838317 -69.103097 -3.724133 14.630387 0.125197 -86.596546 0.291821 3.866814 -13.348341 0.140413 3.923909 -13.335142 0.000000 0.000000 0.000000 0.000000 0.000000 0.000000 0.000000 4.395340 -17.418592 3.176169 56.586497 10.374454 1.614735 21.049416 14.681635 0.052250 0.679491 5.340116 0.026030 0.677575 5.340869 0.000000 0.000000 0.000000 0.000000 0.000000 0.000000 0.000000 
0.069406 17.630809 1.303590 -1.680670 -8.080059 6.248124 -0.584905 20.454792 2.130888 -20.642967 -5.668243 -13.394769 -6.644069 -6.339883 -18.113869 0.024189 8.895487 19.754450 0.000000 0.000000 0.000000 -0.610580 -24.980321 -8.785543 37.040423 12.650712 -6.640144 -13.864273 -2.310381 39.583366 -0.612217 12.087778 -27.597974 0.000000 0.000000 0.000000 -0.512930 1.655367 13.174717 1.974437 1.358077 -1.085643 0.690137 1.936658 -8.690702 -2.305128 0.312465 0.588744 3.684600 -0.110508 4.188423 0.000000 0.000000 0.000000 0.680470 14.690653 10.593718 -69.469382 -4.407539 13.070103 2.389137 -87.661998 0.242542 4.319106 -13.123808 0.115566 4.381183 -13.107056 0.000000 0.000000 0.000000 0.000000 0.000000 0.000000 0.000000 2.954834 -17.007215 3.921900 58.044545 10.330523 2.393050 23.319468 19.200800 0.065305 0.705456 5.959365 0.032508 0.702790 5.960363 0.000000 0.000000 0.000000 0.000000 0.000000 0.000000 0.000000 
0.084925 17.659493 1.443718 -1.575800 -7.873995 6.338476 -0.405491 20.330818 1.833611 -21.064392 -5.593253 -13.019471 -6.519271 -6.015272 -17.059299 -0.078937 8.072698 18.031303 0.000000 0.000000 0.000000 -0.586992 -24.476508 -8.328796 35.977260 12.701525 -7.107336 -13.123172 -2.792325 39.710557 -0.563397 12.017253 -27.936524 0.000000 0.000000 0.000000 -0.627124 1.463488 12.947536 1.868031 1.213526 -0.893753 0.604617 1.802118 -8.136288 -1.623656 0.233965 -0.243543 3.453590 -0.099678 4.065933 0.000000 0.000000 0.000000 1.141404 14.550737 10.364115 -69.823749 -5.116243 11.443393 4.576752 -88.655840 0.191441 4.755833 -12.875218 0.089820 4.822489 -12.854878 0.000000 0.000000 0.000000 0.000000 0.000000 0.000000 0.000000 1.687087 -16.512616 4.708783 59.241882 10.136150 3.454045 25.570014 24.584926 0.084143 0.739552 6.671744 0.041852 0.735974 6.673064 0.000000 0.000000 0.000000 0.000000 0.000000 0.000000 0.000000 
